<?xml version="1.0" standalone="no"?>
<!DOCTYPE svg PUBLIC "-//W3C//DTD SVG 20010904//EN"
 "http://www.w3.org/TR/2001/REC-SVG-20010904/DTD/svg10.dtd">
<svg version="1.0" xmlns="http://www.w3.org/2000/svg"
 width="1200.000000pt" height="300.000000pt" viewBox="0 0 1200.000000 300.000000"
 preserveAspectRatio="xMidYMid meet">

<g transform="translate(0.000000,300.000000) scale(0.100000,-0.100000)"
fill="#000000" stroke="none">
<path d="M3723 2478 c-19 -19 -61 -96 -101 -183 -38 -83 -105 -222 -149 -310
-44 -88 -92 -191 -108 -230 -15 -38 -56 -134 -91 -212 -35 -77 -64 -144 -64
-147 0 -3 -15 -27 -34 -54 -19 -26 -44 -72 -56 -102 -12 -30 -41 -92 -66 -137
-24 -44 -44 -90 -44 -100 0 -15 -13 -22 -60 -32 -67 -15 -89 -33 -70 -56 8 -9
10 -28 5 -54 -8 -46 15 -105 49 -124 13 -7 58 -11 116 -11 85 1 109 6 225 46
200 70 284 104 355 146 83 48 365 162 422 170 l42 5 -15 -24 c-58 -87 -139
-234 -139 -250 0 -20 59 -62 122 -87 33 -13 40 -13 61 1 20 13 191 292 243
397 9 16 20 30 25 30 5 0 9 7 9 15 0 8 10 20 22 26 32 17 339 129 355 129 7 0
13 -8 13 -18 0 -25 -87 -327 -104 -360 -22 -43 -28 -88 -17 -127 11 -40 25
-54 83 -85 49 -26 66 -25 80 5 8 18 14 22 19 13 4 -7 11 -9 15 -6 3 4 26 83
50 175 69 262 96 343 104 313 7 -30 11 -24 40 65 35 109 64 154 118 177 25 12
53 29 61 39 11 13 20 16 31 10 12 -9 11 -22 -8 -103 -48 -204 -58 -387 -25
-459 12 -24 29 -61 39 -83 21 -46 86 -96 159 -120 41 -14 74 -18 146 -14 93 4
94 4 159 50 36 26 96 68 133 93 38 25 116 92 175 148 59 56 137 128 174 160
l68 58 -29 -58 c-16 -32 -46 -98 -66 -148 -21 -49 -51 -107 -66 -127 -16 -20
-29 -40 -29 -45 0 -4 -11 -19 -25 -31 l-25 -24 46 -54 c43 -50 48 -53 64 -39
13 12 23 13 47 4 45 -15 101 22 142 95 17 31 30 59 29 63 0 5 22 56 50 115 29
59 52 111 52 115 -1 14 -40 -38 -40 -53 0 -8 -6 -11 -15 -8 -10 4 -15 0 -15
-14 0 -11 -6 -22 -14 -25 -8 -3 -24 -33 -36 -66 -12 -33 -31 -68 -41 -77 -30
-27 -23 -5 31 90 28 49 50 93 50 98 0 4 7 8 15 8 9 0 23 15 32 34 9 20 21 32
29 29 8 -3 19 9 28 32 20 47 114 202 127 211 7 4 6 -2 -1 -16 -6 -12 -9 -24
-6 -28 7 -6 6 -7 33 36 l20 34 86 -124 c187 -269 392 -500 486 -548 45 -22
101 -26 119 -8 7 7 12 8 12 4 0 -5 7 -3 15 4 13 11 15 9 15 -13 0 -36 23 -50
67 -43 21 4 66 10 101 15 51 7 70 15 95 39 18 17 79 56 137 88 69 37 118 71
142 99 21 23 84 78 140 121 57 43 159 123 228 179 69 56 141 112 160 125 56
39 72 53 100 83 14 16 35 40 47 53 13 14 27 33 33 44 6 11 17 20 26 20 8 0 18
10 23 22 7 20 352 350 359 344 1 -2 -29 -90 -68 -197 -91 -248 -108 -339 -91
-490 6 -59 20 -142 31 -184 20 -77 67 -195 79 -195 3 0 31 -20 61 -45 170
-140 374 -77 564 175 41 53 77 108 81 121 14 44 46 101 87 152 52 66 67 98
118 247 23 69 48 132 55 140 33 39 76 242 78 369 1 87 -15 116 -122 222 -94
93 -160 132 -253 149 -32 6 -78 20 -104 31 -31 14 -57 19 -77 15 -52 -10 -124
-64 -204 -153 l-78 -86 -7 43 c-10 58 -27 81 -104 139 -72 55 -127 72 -292 91
-83 9 -279 1 -362 -15 -30 -6 -454 -27 -597 -29 -82 -1 -105 -5 -121 -19 -19
-18 -22 -17 -79 11 -83 42 -122 47 -154 19 -117 -100 -166 -146 -157 -149 6
-2 -29 -35 -77 -74 -49 -38 -114 -92 -145 -120 -62 -57 -229 -197 -247 -208
-16 -9 39 115 77 174 38 60 97 214 105 276 9 66 -15 98 -92 120 -47 14 -63 14
-97 4 -42 -12 -76 -36 -76 -52 0 -5 -7 -16 -15 -24 -8 -9 -15 -24 -15 -34 0
-10 -18 -58 -41 -107 -22 -48 -79 -178 -126 -288 -138 -323 -186 -418 -219
-437 -16 -9 -51 -37 -77 -63 -74 -71 -629 -431 -747 -484 -58 -26 -73 -26
-104 1 -23 22 -25 30 -28 135 -1 61 1 115 5 119 4 4 7 22 7 40 0 46 54 207
121 362 67 154 193 370 260 446 57 64 216 179 234 168 6 -4 26 -23 43 -43 31
-35 32 -39 37 -155 6 -151 4 -143 34 -151 14 -3 46 -17 70 -30 24 -12 52 -23
63 -23 34 0 86 28 104 55 17 26 17 31 -4 118 -12 51 -26 123 -32 162 -12 91
-42 133 -149 207 -102 70 -140 82 -252 75 -119 -7 -177 -37 -297 -152 -151
-144 -189 -208 -307 -518 -45 -120 -54 -136 -66 -121 -13 16 -60 16 -101 -1
-27 -11 -23 35 16 188 36 140 86 416 86 477 0 19 -5 52 -10 72 -10 34 -16 39
-63 53 -124 37 -119 38 -208 -56 -44 -46 -107 -124 -141 -174 -69 -99 -278
-378 -373 -495 -33 -41 -91 -119 -129 -173 -62 -86 -74 -98 -110 -107 -23 -6
-71 -20 -108 -30 -36 -11 -87 -20 -112 -20 -50 0 -58 -12 -32 -53 37 -59 34
-64 -56 -76 -187 -26 -263 -43 -438 -96 -101 -30 -190 -55 -198 -55 -11 0 -13
8 -8 33 9 52 284 595 322 637 35 39 98 164 223 447 71 159 72 162 56 192 -19
38 -80 80 -126 87 -29 5 -39 1 -66 -28z m4047 -230 c0 -52 107 -158 161 -158
18 0 29 -5 29 -14 0 -19 -112 -346 -149 -434 -17 -41 -47 -128 -66 -195 -44
-148 -97 -267 -120 -267 -20 0 -38 -46 -30 -79 9 -40 -28 -103 -89 -156 -37
-31 -60 -61 -72 -92 -15 -38 -19 -42 -27 -26 -6 10 -22 32 -37 49 -46 54 -311
484 -376 611 l-62 122 51 38 c60 43 134 106 195 166 41 40 126 109 221 179 49
37 172 129 262 198 32 25 66 53 75 62 18 17 34 15 34 -4z m825 -60 c77 3 234
-33 242 -56 10 -25 -54 -101 -246 -291 -226 -223 -697 -671 -705 -671 -3 0 -6
9 -6 20 0 11 -5 29 -12 39 -10 16 -7 28 15 69 15 28 39 81 53 118 118 314 275
675 313 718 34 38 145 68 221 59 30 -4 87 -6 125 -5z m1111 -68 c18 -12 42
-40 55 -66 19 -41 21 -55 14 -137 -4 -51 -15 -118 -26 -149 -10 -32 -19 -76
-19 -98 0 -28 -7 -47 -21 -61 -12 -12 -34 -56 -49 -99 -40 -113 -86 -193 -161
-280 -37 -43 -92 -116 -122 -161 -55 -85 -128 -169 -148 -169 -22 0 -67 58
-88 115 -81 217 -45 442 121 755 114 215 166 275 293 336 81 39 105 42 151 14z
m-4753 -223 c-6 -50 -59 -273 -68 -288 -12 -18 -53 -28 -141 -34 -102 -7 -105
-21 28 157 119 160 168 219 178 213 4 -3 6 -24 3 -48z m3367 -397 c0 -11 -33
-30 -52 -30 -7 0 -2 9 12 20 28 22 40 25 40 10z m-130 -140 c-14 -11 -32 -20
-40 -20 -10 0 -7 7 10 20 14 11 32 20 40 20 10 0 7 -7 -10 -20z m1600 -4 c0
-2 -8 -10 -17 -17 -16 -13 -17 -12 -4 4 13 16 21 21 21 13z m-1745 -101 c-16
-13 -31 -22 -34 -19 -3 3 8 16 24 29 17 13 32 21 35 18 3 -3 -8 -15 -25 -28z
m-155 -109 c0 -2 -7 -9 -15 -16 -13 -11 -14 -10 -9 4 5 14 24 23 24 12z"/>
<path d="M2765 2439 c-271 -60 -325 -67 -382 -55 -24 6 -36 2 -56 -17 -15 -13
-30 -35 -36 -49 -7 -19 -26 -31 -88 -52 -131 -45 -125 -41 -117 -83 11 -62 32
-99 69 -116 19 -9 35 -23 35 -30 0 -7 -45 -114 -101 -238 -162 -359 -263 -596
-307 -714 -22 -60 -52 -132 -66 -160 -34 -67 -62 -206 -46 -234 16 -30 45 -12
72 45 24 47 40 53 77 28 16 -12 34 -14 61 -10 22 3 49 1 62 -4 17 -8 36 -6 78
8 45 16 55 23 53 40 -3 25 31 52 132 107 39 21 88 51 110 65 22 15 69 42 105
60 36 18 119 67 185 110 144 92 246 150 267 150 8 0 32 12 51 28 20 15 78 52
128 82 116 70 155 103 190 159 37 58 38 109 3 170 -49 85 -112 135 -179 142
-51 6 -209 -11 -284 -31 -39 -10 -71 -15 -71 -10 0 10 77 68 240 180 74 51
156 110 181 131 60 50 129 140 129 168 0 68 -108 166 -204 186 -12 2 -142 -23
-291 -56z m105 -196 c0 -17 -233 -257 -275 -284 -25 -16 -48 -36 -51 -44 -8
-19 -172 -165 -208 -184 -14 -8 -29 -12 -32 -8 -8 7 133 337 152 357 16 17
369 167 397 169 9 0 17 -2 17 -6z m-50 -619 c0 -11 -163 -164 -192 -182 -16
-9 -28 -20 -28 -25 0 -4 5 -5 10 -2 6 3 10 2 10 -2 0 -5 -35 -29 -78 -55 -43
-25 -145 -96 -227 -157 -83 -61 -186 -129 -230 -151 -44 -22 -93 -49 -110 -60
-16 -11 -33 -20 -37 -20 -20 0 -4 66 36 144 25 48 56 118 71 155 14 38 35 77
45 86 18 16 688 272 718 274 6 1 12 -2 12 -5z m-700 -644 c0 -5 -5 -10 -11
-10 -5 0 -7 5 -4 10 3 6 8 10 11 10 2 0 4 -4 4 -10z m110 -4 c0 -2 -18 -15
-40 -30 -22 -14 -40 -23 -40 -19 0 5 15 18 33 30 30 21 47 27 47 19z"/>
<path d="M1600 2441 c-80 -27 -208 -76 -285 -109 -188 -81 -547 -251 -564
-267 -11 -11 -7 -21 25 -60 43 -52 72 -70 126 -80 30 -6 40 -2 69 22 51 44
116 87 189 123 36 18 126 65 200 106 126 69 280 134 317 134 23 0 4 -21 -90
-96 -43 -35 -93 -81 -110 -102 -55 -66 -493 -399 -589 -448 -26 -13 -57 -24
-68 -24 -12 0 -25 -10 -32 -24 -28 -62 67 -156 157 -156 20 0 71 15 114 34 42
18 101 38 131 45 161 32 228 44 260 48 l35 4 -40 -33 c-21 -18 -47 -42 -57
-53 -104 -118 -165 -166 -406 -317 -114 -72 -228 -148 -253 -169 -68 -56 -266
-173 -416 -246 l-133 -64 15 -29 c8 -16 15 -32 15 -35 0 -3 -24 -17 -53 -29
-55 -25 -157 -100 -157 -116 0 -17 46 -11 73 10 14 11 31 20 39 20 8 0 23 6
34 14 11 8 30 12 45 9 15 -3 37 1 50 8 35 19 129 28 129 13 0 -7 4 -15 9 -18
9 -6 134 78 139 94 4 11 -37 0 -66 -18 -12 -8 -25 -12 -28 -9 -3 3 25 22 63
43 124 68 368 218 391 241 13 13 31 23 41 23 10 0 26 9 36 20 28 31 36 24 15
-13 l-19 -32 48 5 c55 6 167 65 176 93 4 9 14 17 24 17 24 0 161 102 156 117
-6 18 28 43 51 37 16 -4 57 23 165 107 170 133 356 287 383 318 29 32 25 86
-11 123 -80 85 -216 102 -483 59 -30 -5 -56 -8 -58 -6 -6 6 53 55 133 112 44
31 107 76 139 101 33 25 78 53 100 63 23 10 55 32 71 49 17 18 55 49 85 70 87
60 121 101 127 152 7 58 -23 95 -109 134 -105 47 -171 44 -348 -15z"/>
<path d="M10894 2448 c-15 -18 -33 -47 -40 -64 l-13 -31 -188 -6 c-233 -8
-465 -37 -522 -66 -74 -38 -88 -109 -40 -203 l21 -41 66 8 c37 4 146 11 242
15 96 4 201 14 232 21 32 7 61 10 64 7 3 -3 -14 -44 -37 -89 -23 -46 -96 -199
-161 -339 -66 -140 -146 -311 -179 -380 -55 -118 -59 -131 -62 -210 -3 -70
-10 -101 -40 -176 -20 -50 -37 -98 -37 -107 0 -36 132 -96 184 -83 22 5 84 92
124 171 11 22 39 101 62 175 58 185 83 245 195 470 53 107 105 218 116 245 11
28 51 100 88 160 38 61 74 127 80 148 l13 37 71 0 c40 0 90 5 112 10 22 5 168
12 325 15 295 6 374 11 366 24 -3 4 11 15 31 25 42 20 35 34 -23 42 -51 8
-124 34 -124 46 0 4 -55 5 -125 2 -82 -5 -133 -3 -148 4 -12 5 -31 13 -42 17
-15 4 -16 8 -6 14 18 11 -51 21 -184 25 -120 4 -165 12 -165 29 0 6 -8 27 -17
48 -22 46 -73 69 -155 69 -51 0 -59 -3 -84 -32z m509 -155 c-34 -2 -93 -2
-130 0 -37 2 -9 3 62 3 72 0 102 -1 68 -3z m404 -29 c-3 -3 -12 -4 -19 -1 -8
3 -5 6 6 6 11 1 17 -2 13 -5z m-240 -31 c-20 -2 -52 -2 -70 0 -17 2 0 4 38 4
39 0 53 -2 32 -4z m176 0 c-7 -2 -19 -2 -25 0 -7 3 -2 5 12 5 14 0 19 -2 13
-5z m-953 -569 c-18 -43 -20 -45 -14 -14 7 38 23 74 30 67 3 -2 -5 -26 -16
-53z"/>
<path d="M11520 2306 c0 -2 9 -6 20 -9 11 -3 20 -1 20 4 0 5 -9 9 -20 9 -11 0
-20 -2 -20 -4z"/>
<path d="M11593 2293 c15 -2 37 -2 50 0 12 2 0 4 -28 4 -27 0 -38 -2 -22 -4z"/>
<path d="M10823 1583 c-3 -10 -8 -21 -10 -25 -10 -19 6 -5 21 17 9 14 12 25 6
25 -6 0 -13 -8 -17 -17z"/>
</g>
</svg>
